<?xml version="1.0" encoding="UTF-8" standalone="no"?>
<svg width="25px" height="30px" viewBox="0 0 25 30" version="1.1" xmlns="http://www.w3.org/2000/svg" xmlns:xlink="http://www.w3.org/1999/xlink">
    <!-- Generator: Sketch 42 (36781) - http://www.bohemiancoding.com/sketch -->
    <title>Group</title>
    <desc>Created with Sketch.</desc>
    <defs></defs>
    <g id="Page-1" stroke="none" stroke-width="1" fill="none" fill-rule="evenodd">
        <g id="task" transform="translate(-398.000000, -604.000000)">
            <g id="Files" transform="translate(112.000000, 560.000000)">
                <g id="noun_86005_cc-copy" transform="translate(286.000000, 44.000000)">
                    <g id="Group">
                        <path d="M20.7213333,6.24766667 L20.7213333,11.8713333 L22.266,11.8713333 L22.266,5.65366667 C22.266,5.37633333 22.1473333,5.13866667 21.9493333,4.94066667 L16.7216667,0.267666667 C16.5236667,0.109333333 16.286,0.03 16.0483333,0.03 L0.999,0.03 C0.444666667,0.03 0.009,0.465666667 0.009,1.02 L0.009,28.98 C0.009,29.5343333 0.444666667,29.97 0.999,29.97 L21.3153333,29.97 C21.8696667,29.97 22.3053333,29.5343333 22.3053333,28.98 L22.3053333,21.6136667 L20.7213333,21.6136667 L20.7213333,28.3856667 L1.593,28.3856667 L1.593,1.614 L15.7313333,1.614 L15.7313333,6.24766667 L20.7213333,6.24766667 L20.7213333,6.24766667 Z" id="Shape" fill="#4C81F6"></path>
                        <path d="M23.8406667,13 L11.125,13 C10.5036667,13 10,13.5036667 10,14.125 L10,19.5383333 C10,20.1596667 10.5036667,20.6633333 11.125,20.6633333 L23.8406667,20.6633333 C24.462,20.6633333 24.9656667,20.1596667 24.9656667,19.5383333 L24.9656667,14.125 C24.9656667,13.5033333 24.462,13 23.8406667,13 L23.8406667,13 Z" id="Shape" fill="#4C81F6"></path>
                        <path d="M13.1108398,16.0263672 L13.1108398,18.375 L13.8041992,18.375 C14.1590187,18.375 14.4064121,18.2000343 14.5463867,17.8500977 C14.6228845,17.6580394 14.6611328,17.4293633 14.6611328,17.1640625 C14.6611328,16.7978497 14.6037603,16.5166839 14.4890137,16.3205566 C14.374267,16.1244294 14.1459978,16.0263672 13.8041992,16.0263672 L13.1108398,16.0263672 Z M14.487793,15.4794922 C14.7400729,15.5625004 14.9443352,15.7146799 15.1005859,15.9360352 C15.2259121,16.1150725 15.3113604,16.3087555 15.3569336,16.5170898 C15.4025067,16.7254242 15.425293,16.9239899 15.425293,17.112793 C15.425293,17.591311 15.3292653,17.9965804 15.137207,18.3286133 C14.8767891,18.7762067 14.4747749,19 13.9311523,19 L12.3808594,19 L12.3808594,15.4013672 L13.9311523,15.4013672 C14.1541352,15.4046224 14.3396802,15.4306638 14.487793,15.4794922 L14.487793,15.4794922 Z M18.4593913,18.1333008 C18.6343596,17.9135731 18.7218425,17.6010762 18.7218425,17.1958008 C18.7218425,16.7921529 18.6343596,16.480063 18.4593913,16.2595215 C18.284423,16.03898 18.0480158,15.9287109 17.7501628,15.9287109 C17.4523097,15.9287109 17.2146819,16.0385731 17.0372722,16.2583008 C16.8598624,16.4780284 16.7711589,16.7905253 16.7711589,17.1958008 C16.7711589,17.6010762 16.8598624,17.9135731 17.0372722,18.1333008 C17.2146819,18.3530284 17.4523097,18.4628906 17.7501628,18.4628906 C18.0480158,18.4628906 18.284423,18.3530284 18.4593913,18.1333008 L18.4593913,18.1333008 Z M18.929362,18.6801758 C18.6575507,18.9601251 18.2644883,19.1000977 17.7501628,19.1000977 C17.2358373,19.1000977 16.8427748,18.9601251 16.5709636,18.6801758 C16.2063784,18.3367496 16.0240886,17.8419629 16.0240886,17.1958008 C16.0240886,16.5366178 16.2063784,16.0418311 16.5709636,15.7114258 C16.8427748,15.4314765 17.2358373,15.2915039 17.7501628,15.2915039 C18.2644883,15.2915039 18.6575507,15.4314765 18.929362,15.7114258 C19.2923195,16.0418311 19.4737956,16.5366178 19.4737956,17.1958008 C19.4737956,17.8419629 19.2923195,18.3367496 18.929362,18.6801758 L18.929362,18.6801758 Z M20.5633138,15.7773438 C20.8562841,15.4811183 21.2290017,15.3330078 21.6814779,15.3330078 C22.2869497,15.3330078 22.7296536,15.5315735 23.0096029,15.9287109 C23.1642261,16.1516938 23.2472331,16.3754872 23.2586263,16.6000977 L22.5066732,16.6000977 C22.4578448,16.4275708 22.3951827,16.2973637 22.3186849,16.2094727 C22.1819655,16.0532219 21.9793308,15.9750977 21.7107748,15.9750977 C21.4373359,15.9750977 21.2216805,16.0853667 21.0638021,16.3059082 C20.9059237,16.5264497 20.8269857,16.8385396 20.8269857,17.2421875 C20.8269857,17.6458354 20.9103996,17.9481598 21.0772299,18.1491699 C21.2440601,18.35018 21.4560534,18.4506836 21.7132162,18.4506836 C21.9768894,18.4506836 22.1778965,18.3644214 22.3162435,18.1918945 C22.3927413,18.0991206 22.4562172,17.9599619 22.5066732,17.7744141 L23.2513021,17.7744141 C23.1861976,18.1666686 23.0197768,18.4856759 22.7520345,18.7314453 C22.4842923,18.9772148 22.1412782,19.1000977 21.7229818,19.1000977 C21.2054011,19.1000977 20.7985041,18.9340837 20.5022787,18.6020508 C20.2060532,18.2683903 20.0579427,17.8110381 20.0579427,17.2299805 C20.0579427,16.6017221 20.2263981,16.1175147 20.5633138,15.7773438 L20.5633138,15.7773438 Z" id="DOC" fill="#FFFFFF"></path>
                    </g>
                </g>
            </g>
        </g>
    </g>
</svg>