<?xml version="1.0" encoding="UTF-8" standalone="no"?>
<svg width="20px" height="20px" viewBox="0 0 20 20" version="1.1" xmlns="http://www.w3.org/2000/svg" xmlns:xlink="http://www.w3.org/1999/xlink">
    <!-- Generator: Sketch 42 (36781) - http://www.bohemiancoding.com/sketch -->
    <title>Shape</title>
    <desc>Created with Sketch.</desc>
    <defs></defs>
    <g id="Symbols" stroke="none" stroke-width="1" fill="none" fill-rule="evenodd">
        <g id="meeting-item" transform="translate(-175.000000, -267.000000)" fill="#B8B8B8">
            <g id="votes-questions-comments">
                <g transform="translate(35.000000, 261.000000)">
                    <g id="Group-8" transform="translate(134.000000, 0.000000)">
                        <path d="M15.883832,25.0800006 C14.3961805,25.0800006 12.9376986,24.7299649 11.5667256,24.000724 C9.93322589,25.0508309 8.41640472,24.963322 7.77467269,24.8758131 C7.33712812,24.8174738 7.0162621,24.4674382 6.95792283,24.0590632 C6.89958355,23.6215187 7.10377102,23.2131437 7.48297631,23.0381259 C8.06636907,22.7464295 8.474744,22.2213761 8.76644037,21.7254922 C5.76196768,18.0792875 5.99532478,12.7120741 9.37900277,9.35756576 C12.9668682,5.7697003 18.8299654,5.7697003 22.4178309,9.35756576 C24.1680092,11.107744 25.1306072,13.4121454 25.1306072,15.862395 C25.1306072,18.3126446 24.1680092,20.6462156 22.4178309,22.3672242 C20.638483,24.1465721 18.2757423,25.0800006 15.883832,25.0800006 L15.883832,25.0800006 Z M11.9167613,22.7172599 C13.1418861,23.4465008 14.512859,23.7965365 15.883832,23.7965365 C17.9257067,23.7965365 19.9675813,23.0089563 21.4844025,21.4629655 C22.972054,19.9753139 23.8179735,17.9626089 23.8179735,15.862395 C23.8179735,13.7330114 23.0012236,11.7494761 21.4844025,10.2618245 C18.3924209,7.16984292 13.3752432,7.16984292 10.2832615,10.2618245 C7.33712812,13.207958 7.19127993,17.9626089 9.90405625,21.0837602 L9.96239553,21.1129298 C10.1957526,21.2879476 10.2540919,21.6088137 10.1374134,21.8713404 C9.87488661,22.4255635 9.49568132,23.0672955 8.91228856,23.6215187 C9.52485096,23.5631794 10.3416008,23.3589919 11.1583507,22.7172599 C11.3625381,22.5422421 11.6834042,22.5422421 11.9167613,22.7172599 L11.9167613,22.7172599 Z" id="Shape"></path>
                    </g>
                </g>
            </g>
        </g>
    </g>
</svg>