<?xml version="1.0" encoding="UTF-8" standalone="no"?>
<svg width="20px" height="22px" viewBox="0 0 20 22" version="1.1" xmlns="http://www.w3.org/2000/svg" xmlns:xlink="http://www.w3.org/1999/xlink">
    <!-- Generator: Sketch 42 (36781) - http://www.bohemiancoding.com/sketch -->
    <title>notifications</title>
    <desc>Created with Sketch.</desc>
    <defs></defs>
    <g id="Page-2" stroke="none" stroke-width="1" fill="none" fill-rule="evenodd">
        <g id="header-look-3" transform="translate(-822.000000, -29.000000)">
            <g id="menu">
                <g id="notifications" transform="translate(812.000000, 20.000000)">
                    <g>
                        <rect id="Rectangle-57" x="5" y="5" width="30" height="30"></rect>
                        <path d="M21.6348066,10.9609239 C21.6348066,11.9108621 20.8503224,12.6810474 19.8827482,12.6810474 C18.9151739,12.6810474 18.1306898,11.9108621 18.1306898,10.9609239 C18.1306898,10.0109857 18.9151739,9.24080039 19.8827482,9.24080039 C20.8503224,9.24080039 21.6348066,10.0109857 21.6348066,10.9609239" id="Fill-1" fill="#474747"></path>
                        <path d="M28.2050255,23.5393269 C27.2194927,22.6792652 25.6316897,20.6099566 25.6316897,17.1155257 C25.6316897,14.9395695 24.589215,13.0912968 23.089453,12.0041788 C22.7832808,11.7822829 22.3557786,11.9035516 22.1687464,12.2286549 C21.7184673,13.0121711 20.8643389,13.5411091 19.8827482,13.5411091 C18.9208681,13.5411091 18.0816322,13.0332427 17.6243449,12.2759583 C17.4211061,11.9401042 16.9787114,11.8515178 16.6646549,12.091475 C15.2297191,13.1893439 14.2433103,14.9984838 14.2433103,17.1155257 C14.2433103,20.6099566 12.6555073,22.6388423 11.6699745,23.498904 C10.6844417,24.3589658 10.1369234,25.4542544 12.2174927,26.36807 C14.2980621,27.2818856 19.8827482,27.1846986 19.8827482,27.1846986 L19.9922518,27.1945893 C19.9922518,27.1945893 25.5769379,27.3020971 27.6575073,26.3882815 C29.7380766,25.4744659 29.1905583,24.3993887 28.2050255,23.5393269" id="Fill-4" fill="#474747"></path>
                        <path d="M23.2820379,28.0369686 C22.9007089,29.5316493 21.5233197,30.6387496 19.8827482,30.6387496 C18.2355726,30.6387496 16.8537024,29.5227182 16.4789019,28.0188995 C17.5919239,28.1120996 18.7712625,28.1621588 19.9922518,28.1621588 C21.131811,28.1621588 22.2350898,28.118554 23.2820379,28.0369686 Z" id="Combined-Shape" fill="#474747"></path>
                    </g>
                </g>
            </g>
        </g>
    </g>
</svg>