<?xml version="1.0" encoding="UTF-8" standalone="no"?>
<svg width="13px" height="15px" viewBox="0 0 13 15" version="1.1" xmlns="http://www.w3.org/2000/svg" xmlns:xlink="http://www.w3.org/1999/xlink">
    <!-- Generator: Sketch 42 (36781) - http://www.bohemiancoding.com/sketch -->
    <title>calendar</title>
    <desc>Created with Sketch.</desc>
    <defs></defs>
    <g id="Page-1" stroke="none" stroke-width="1" fill="none" fill-rule="evenodd">
        <g id="create-meeting" transform="translate(-164.000000, -323.000000)" fill="#474747">
            <g id="main-info-form" transform="translate(112.000000, 290.000000)">
                <g id="login-field" transform="translate(40.000000, 20.000000)">
                    <g id="calendar" transform="translate(12.000000, 13.000000)">
                        <path d="M0,2.99850233 C0,2.44704472 0.447489426,2 0.998502329,2 L12.0014977,2 C12.5529553,2 13,2.44748943 13,2.99850233 L13,14.0014977 C13,14.5529553 12.5525106,15 12.0014977,15 L0.998502329,15 C0.44704472,15 0,14.5525106 0,14.0014977 L0,2.99850233 Z M2,4.99754465 L2,12.0024554 C2,12.5536886 2.44661595,13 2.99754465,13 L10.0024554,13 C10.5536886,13 11,12.553384 11,12.0024554 L11,4.99754465 C11,4.4463114 10.553384,4 10.0024554,4 L2.99754465,4 C2.4463114,4 2,4.44661595 2,4.99754465 Z M5,7 L9,7 L9,11 L5,11 L5,7 Z M9,0 L11,0 L11,2 L9,2 L9,0 Z M2,0 L4,0 L4,2 L2,2 L2,0 Z" id="Combined-Shape"></path>
                    </g>
                </g>
            </g>
        </g>
    </g>
</svg>