<?xml version="1.0" encoding="UTF-8" standalone="no"?>
<svg width="32px" height="31px" viewBox="0 0 32 31" version="1.1" xmlns="http://www.w3.org/2000/svg" xmlns:xlink="http://www.w3.org/1999/xlink">
    <!-- Generator: Sketch 42 (36781) - http://www.bohemiancoding.com/sketch -->
    <title>Shape</title>
    <desc>Created with Sketch.</desc>
    <defs></defs>
    <g id="Page-1" stroke="none" stroke-width="1" fill="none" fill-rule="evenodd">
        <g id="meeting" transform="translate(-946.000000, -2302.000000)" fill="#FF543A">
            <g id="discussions" transform="translate(932.000000, 2285.000000)">
                <g id="Group-31" transform="translate(0.000000, 3.000000)">
                    <g id="Group-8" transform="translate(6.000000, 6.000000)">
                        <path d="M13.8929849,29.4038596 C13.2523905,29.4038596 12.7719447,28.8913841 12.7719447,28.2828195 C12.7719447,27.6422251 13.2844202,27.1617793 13.8929849,27.1617793 C14.5015496,27.1617793 15.0140251,27.6742548 15.0140251,28.2828195 C15.0460548,28.8913841 14.5335793,29.4038596 13.8929849,29.4038596 L13.8929849,29.4038596 Z M18.1209078,38.4042106 C16.4873921,38.4042106 14.8859062,38.019854 13.3805094,37.219111 C11.5868451,38.3721809 9.92129975,38.2760918 9.21664594,38.1800026 C8.73620015,38.1159432 8.38387325,37.7315865 8.31981381,37.2831705 C8.25575437,36.8027247 8.4799624,36.3543086 8.89634875,36.1621303 C9.53694312,35.8418331 9.98535919,35.2652982 10.3056564,34.720793 C7.00659533,30.7170781 7.26283308,24.8236098 10.9782805,21.1401922 C14.9179359,17.2005367 21.3559094,17.2005367 25.2955648,21.1401922 C27.2173479,23.0619753 28.2743287,25.5923231 28.2743287,28.2828195 C28.2743287,30.9733159 27.2173479,33.5356934 25.2955648,35.4254468 C23.341752,37.3792596 20.7473447,38.4042106 18.1209078,38.4042106 L18.1209078,38.4042106 Z M13.764866,35.8098034 C15.1101142,36.6105464 16.615511,36.994903 18.1209078,36.994903 C20.3629881,36.994903 22.6050684,36.1301006 24.2706138,34.4325255 C25.9041295,32.7990098 26.8329913,30.5889592 26.8329913,28.2828195 C26.8329913,25.94465 25.9361592,23.7666291 24.2706138,22.1331135 C20.8754636,18.7379633 15.366352,18.7379633 11.9712018,22.1331135 C8.73620015,25.3681151 8.57605156,30.5889592 11.5548154,34.0161392 L11.6188749,34.0481689 C11.8751126,34.2403472 11.939172,34.5926741 11.8110532,34.8809416 C11.5227857,35.4895062 11.1063993,36.19416 10.465805,36.8027247 C11.1384291,36.7386653 12.0352612,36.5144572 12.9320933,35.8098034 C13.1563014,35.6176251 13.5086283,35.6176251 13.764866,35.8098034 L13.764866,35.8098034 Z M18.1209078,29.4038596 C17.4803134,29.4038596 16.9998676,28.8913841 16.9998676,28.2828195 C16.9998676,27.6422251 17.5123431,27.1617793 18.1209078,27.1617793 C18.7294724,27.1617793 19.2419479,27.6742548 19.2419479,28.2828195 C19.2739777,28.8913841 18.7615022,29.4038596 18.1209078,29.4038596 L18.1209078,29.4038596 Z M22.3488307,29.4038596 C21.7082363,29.4038596 21.2277905,28.8913841 21.2277905,28.2828195 C21.2277905,27.6422251 21.740266,27.1617793 22.3488307,27.1617793 C22.9573953,27.1617793 23.4698708,27.6742548 23.4698708,28.2828195 C23.5019006,28.8913841 22.9894251,29.4038596 22.3488307,29.4038596 L22.3488307,29.4038596 Z M38.9722548,25.9766797 C38.3316604,25.6563825 37.8832443,25.0798476 37.5949769,24.5353424 C40.8940379,20.5316275 40.6378002,14.6381592 36.9223528,10.9547416 C32.9826973,7.01508614 26.5447238,7.01508614 22.6050684,10.9547416 C20.939523,12.6202869 19.914572,14.7662781 19.690364,17.1044476 C20.1708098,17.168507 20.6192259,17.2645962 21.0996716,17.3927151 C21.2598202,15.3428131 22.1566524,13.4530596 23.6300194,11.9796926 C25.3275945,10.2821175 27.5696749,9.44934478 29.7797255,9.44934478 C31.9897761,9.44934478 34.2318564,10.2821175 35.9294315,11.9796926 C39.1644331,15.2146942 39.3245817,20.4355384 36.3458178,23.8627183 L36.2817584,23.894748 C36.0255206,24.0869263 35.9614612,24.4392532 36.0895801,24.7275207 C36.3778475,25.3360853 36.7942339,26.0407392 37.4348283,26.6493038 C36.7622042,26.5852444 35.865372,26.3610363 34.9685399,25.6563825 C34.7123022,25.4642042 34.3599753,25.4642042 34.1037375,25.6563825 C32.7584893,26.4571255 31.2530925,26.8414821 29.7476957,26.8414821 L29.3313094,26.8414821 C29.3953688,27.3219279 29.4273985,27.770344 29.4273985,28.2507898 L29.7476957,28.2507898 C31.3812114,28.2507898 32.9826973,27.8664331 34.4880941,27.0656902 C36.2817584,28.21876 37.9473038,28.1226709 38.6519576,28.0265817 C39.1324034,27.9625223 39.4847303,27.5781657 39.5487897,27.1297496 C39.6448789,26.6172741 39.3886411,26.168858 38.9722548,25.9766797 L38.9722548,25.9766797 Z" id="Shape"></path>
                    </g>
                </g>
            </g>
        </g>
    </g>
</svg>