<?xml version="1.0" encoding="UTF-8" standalone="no"?>
<svg width="25px" height="30px" viewBox="0 0 25 30" version="1.1" xmlns="http://www.w3.org/2000/svg" xmlns:xlink="http://www.w3.org/1999/xlink">
    <!-- Generator: Sketch 42 (36781) - http://www.bohemiancoding.com/sketch -->
    <title>pdf icon</title>
    <desc>Created with Sketch.</desc>
    <defs></defs>
    <g id="Page-1" stroke="none" stroke-width="1" fill="none" fill-rule="evenodd">
        <g id="create-meeting" transform="translate(-171.000000, -3893.000000)" fill="#FF543A">
            <g id="question-form" transform="translate(111.000000, 2336.000000)">
                <g id="docs" transform="translate(40.000000, 1375.000000)">
                    <g id="doc-1" transform="translate(0.000000, 162.000000)">
                        <g id="pdf-icon" transform="translate(20.000000, 20.000000)">
                            <path d="M20.7213333,6.24766667 L20.7213333,11.8713333 L22.266,11.8713333 L22.266,5.65366667 C22.266,5.37633333 22.1473333,5.13866667 21.9493333,4.94066667 L16.7216667,0.267666667 C16.5236667,0.109333333 16.286,0.03 16.0483333,0.03 L0.999,0.03 C0.444666667,0.03 0.009,0.465666667 0.009,1.02 L0.009,28.98 C0.009,29.5343333 0.444666667,29.97 0.999,29.97 L21.3153333,29.97 C21.8696667,29.97 22.3053333,29.5343333 22.3053333,28.98 L22.3053333,21.6136667 L20.7213333,21.6136667 L20.7213333,28.3856667 L1.593,28.3856667 L1.593,1.614 L15.7313333,1.614 L15.7313333,6.24766667 L20.7213333,6.24766667 L20.7213333,6.24766667 Z" id="Shape"></path>
                            <path d="M14.0293333,15.5296667 C13.936,15.512 13.7483333,15.5033333 13.4663333,15.5033333 L13.0883333,15.5033333 L13.0883333,16.6033333 L13.5166667,16.6033333 C13.825,16.6033333 14.0313333,16.583 14.1353333,16.5426667 C14.2393333,16.502 14.321,16.4386667 14.38,16.3523333 C14.439,16.266 14.4686667,16.1653333 14.4686667,16.051 C14.4686667,15.91 14.4273333,15.7936667 14.3443333,15.702 C14.2613333,15.6096667 14.1563333,15.5526667 14.0293333,15.5296667 L14.0293333,15.5296667 Z" id="Shape"></path>
                            <path d="M18.0533333,15.7226667 C17.9583333,15.6326667 17.8373333,15.572 17.691,15.5403333 C17.5816667,15.5156667 17.3676667,15.5033333 17.0486667,15.5033333 L16.697,15.5033333 L16.697,18.0706667 L17.2813333,18.0706667 C17.5,18.0706667 17.6576667,18.0583333 17.7546667,18.0336667 C17.8816667,18.002 17.987,17.9483333 18.0706667,17.8723333 C18.1543333,17.7966667 18.2226667,17.6716667 18.2756667,17.4983333 C18.3286667,17.3246667 18.355,17.088 18.355,16.7883333 C18.355,16.4886667 18.3286667,16.2586667 18.2756667,16.0983333 C18.2226667,15.9376667 18.1486667,15.8126667 18.0533333,15.7226667 L18.0533333,15.7226667 Z" id="Shape"></path>
                            <path d="M23.5326667,12.954 L10.817,12.954 C10.1956667,12.954 9.692,13.4576667 9.692,14.079 L9.692,19.4923333 C9.692,20.1136667 10.1956667,20.6173333 10.817,20.6173333 L23.5326667,20.6173333 C24.154,20.6173333 24.6576667,20.1136667 24.6576667,19.4923333 L24.6576667,14.079 C24.6576667,13.4573333 24.154,12.954 23.5326667,12.954 L23.5326667,12.954 Z M15.145,16.64 C15.0586667,16.802 14.949,16.9296667 14.8156667,17.022 C14.6826667,17.1146667 14.5473333,17.1756667 14.41,17.2056667 C14.223,17.2426667 13.9526667,17.2613333 13.5983333,17.2613333 L13.088,17.2613333 L13.088,18.7233333 L12.3053333,18.7233333 L12.3053333,14.8476667 L13.561,14.8476667 C14.037,14.8476667 14.347,14.867 14.4916667,14.9056667 C14.7136667,14.9636667 14.8996667,15.0903333 15.0496667,15.285 C15.1993333,15.4796667 15.2743333,15.7313333 15.2743333,16.0396667 C15.2746667,16.2776667 15.2316667,16.478 15.145,16.64 L15.145,16.64 Z M19.0446667,17.6473333 C18.9476667,17.9293333 18.8093333,18.1576667 18.6296667,18.332 C18.494,18.4643333 18.3106667,18.5673333 18.0796667,18.6413333 C17.907,18.696 17.676,18.7233333 17.387,18.7233333 L15.9143333,18.7233333 L15.9143333,14.8476667 L17.3446667,14.8476667 C17.6673333,14.8476667 17.913,14.8723333 18.0823333,14.9216667 C18.3096667,14.9886667 18.5043333,15.1076667 18.6666667,15.2786667 C18.8286667,15.4496667 18.9523333,15.659 19.0366667,15.9066667 C19.1213333,16.1543333 19.1636667,16.4596667 19.1636667,16.8226667 C19.1636667,17.1413333 19.124,17.4163333 19.0446667,17.6473333 L19.0446667,17.6473333 Z M22.267,15.503 L20.3926667,15.503 L20.3926667,16.4203333 L22.0106667,16.4203333 L22.0106667,17.076 L20.3926667,17.076 L20.3926667,18.723 L19.61,18.723 L19.61,14.8476667 L22.267,14.8476667 L22.267,15.503 L22.267,15.503 Z" id="Shape"></path>
                        </g>
                    </g>
                </g>
            </g>
        </g>
    </g>
</svg>