<?xml version="1.0" encoding="UTF-8" standalone="no"?>
<svg width="40px" height="32px" viewBox="0 0 40 32" version="1.1" xmlns="http://www.w3.org/2000/svg" xmlns:xlink="http://www.w3.org/1999/xlink">
    <!-- Generator: Sketch 42 (36781) - http://www.bohemiancoding.com/sketch -->
    <title>Shape</title>
    <desc>Created with Sketch.</desc>
    <defs></defs>
    <g id="Page-1" stroke="none" stroke-width="1" fill="none" fill-rule="evenodd">
        <g id="Files-empty" transform="translate(-492.000000, -280.000000)" fill="#67CB5C">
            <path d="M528,285.333333 L509.401778,285.333333 L507.986667,281.796444 C507.577333,280.772444 506.436,280 505.333333,280 L494.222222,280 C492.996889,280 492,280.996889 492,282.222222 L492,308 C492,310.205333 493.794222,312 496,312 L528,312 C530.205778,312 532,310.205333 532,308 L532,289.333333 C532,287.128 530.205778,285.333333 528,285.333333 L528,285.333333 Z M494.222222,281.777778 L505.333333,281.777778 C505.702222,281.777778 506.199111,282.114222 506.336444,282.456889 L507.486667,285.333333 L496,285.333333 C495.178222,285.333333 494.413778,285.583111 493.777778,286.009778 L493.777778,282.222222 C493.777778,281.981333 493.981333,281.777778 494.222222,281.777778 L494.222222,281.777778 Z M530.222222,308 C530.222222,309.225333 529.225333,310.222222 528,310.222222 L496,310.222222 C494.774667,310.222222 493.777778,309.225333 493.777778,308 L493.777778,289.333333 C493.777778,288.108 494.774667,287.111111 496,287.111111 L528,287.111111 C529.225333,287.111111 530.222222,288.108 530.222222,289.333333 L530.222222,308 L530.222222,308 Z" id="Shape"></path>
        </g>
    </g>
</svg>