<?xml version="1.0" encoding="UTF-8" standalone="no"?>
<svg width="113px" height="41px" viewBox="0 0 113 41" version="1.1" xmlns="http://www.w3.org/2000/svg" xmlns:xlink="http://www.w3.org/1999/xlink">
    <!-- Generator: Sketch 42 (36781) - http://www.bohemiancoding.com/sketch -->
    <title>logo</title>
    <desc>Created with Sketch.</desc>
    <defs>
        <polygon id="path-1" points="0 0.679905497 0 40.3459827 39.8814667 40.3459827 39.8814667 0.679905497 3.92675787e-20 0.679905497"></polygon>
    </defs>
    <g id="Symbols" stroke="none" stroke-width="1" fill="none" fill-rule="evenodd">
        <g id="new-menu" transform="translate(-21.000000, -19.000000)">
            <g id="logo">
                <g transform="translate(21.000000, 19.000000)">
                    <polygon id="Fill-1" fill="#1D1C1B" points="72.2187346 17.3443265 72.2187346 14.8270119 62.5304333 14.8270119 62.5304333 26.6470073 72.2187346 26.6470073 72.2187346 24.1296926 65.0620679 24.1296926 65.0620679 21.9473956 70.8815679 21.9473956 70.8815679 19.4913207 65.0620679 19.4913207 65.0620679 17.3443265"></polygon>
                    <polygon id="Fill-2" fill="#1D1C1B" points="102.671365 14.8268678 102.671365 17.343462 106.334449 17.343462 106.334449 26.6432608 108.864635 26.6432608 108.864635 17.343462 112.528442 17.343462 112.528442 14.8268678"></polygon>
                    <path d="M94.482125,22.2781623 L96.1003429,17.5273974 L97.7192853,22.2781623 L94.482125,22.2781623 Z M97.4853173,14.827084 L94.7146442,14.827084 L90.2272404,26.642036 L92.8914327,26.642036 L93.6795353,24.4878372 L98.521875,24.4878372 L99.3099776,26.642036 L101.97417,26.642036 L97.4853173,14.827084 Z" id="Fill-3" fill="#1D1C1B"></path>
                    <polygon id="Fill-4" fill="#1D1C1B" points="84.7988218 14.8268678 84.7988218 19.3953544 78.5309436 19.3953544 78.5309436 14.8268678 76.0014821 14.8268678 76.0014821 26.6418199 78.5309436 26.6418199 78.5309436 21.8989801 84.7988218 21.8989801 84.7988218 26.6418199 87.327559 26.6418199 87.327559 14.8268678"></polygon>
                    <g id="Group-18" transform="translate(0.000000, 0.040778)">
                        <path d="M58.9468122,23.883797 C58.3122737,24.3218414 57.2742673,24.7238625 55.9030558,24.7238625 C53.4286455,24.7238625 51.5467609,23.1813408 51.5467609,20.7519233 C51.5467609,18.2850414 53.4670365,16.781425 55.7647032,16.781425 C57.0200173,16.781425 57.9392288,17.0609665 58.6389596,17.5616917 L59.4212673,15.4024496 C58.3723955,14.7475443 57.1156327,14.3563303 55.7647032,14.3563303 C52.0639532,14.3563303 49.0948058,16.949294 49.0948058,20.7519233 C49.0948058,24.5163677 52.0639532,27.1395911 55.7647032,27.1395911 C57.3017929,27.1395911 58.6563442,26.7109127 59.7102865,25.9861221 L58.9468122,23.883797 Z" id="Fill-5" fill="#1D1C1B"></path>
                        <g id="Group-9">
                            <mask id="mask-2" fill="white">
                                <use xlink:href="#path-1"></use>
                            </mask>
                            <g id="Clip-8"></g>
                            <path d="M39.8814667,20.5129441 C39.8814667,31.4669371 30.9530179,40.3459827 19.9405885,40.3459827 C8.92815897,40.3459827 -0.00028974359,31.4669371 -0.00028974359,20.5129441 C-0.00028974359,9.55895111 8.92815897,0.679905497 19.9405885,0.679905497 C30.9530179,0.679905497 39.8814667,9.55895111 39.8814667,20.5129441" id="Fill-7" fill="#6D4192" mask="url(#mask-2)"></path>
                        </g>
                        <path d="M18.6486942,20.8059584 L16.8196878,20.8059584 L16.8196878,18.9147303 L18.716784,18.9147303 C19.2383224,18.9147303 19.6613481,19.3751092 19.6613481,19.9349127 C19.6613481,20.2692098 19.3860917,20.8059584 18.6486942,20.8059584 M18.716784,17.5645736 L15.4593417,17.5645736 L15.4593417,23.9291864 L16.8196878,23.9291864 L16.8196878,22.1553946 L18.6486942,22.1553946 C20.1314571,22.1553946 21.0195212,21.0257011 21.0195212,19.9349127 C21.0195212,18.6287046 19.988034,17.5645736 18.716784,17.5645736" id="Fill-10" fill="#FEFEFE"></path>
                        <polygon id="Fill-12" fill="#FEFEFE" points="29.2240455 17.5645736 29.2240455 23.9291864 30.585116 23.9299069 30.585116 18.9190531 34.1178147 18.9190531 34.1178147 17.5645736"></polygon>
                        <path d="M9.81354295,18.9197015 L11.4665301,18.9197015 L11.4665301,22.5818395 L8.83058782,22.5803986 L9.81354295,18.9197015 Z M12.8268763,22.5803986 L12.8261519,17.5645015 L8.77046603,17.5645015 L7.42170962,22.5803986 L6.20695962,22.5818395 L6.27215192,25.426967 L7.56947885,25.426967 L7.56947885,23.9341577 L12.7022865,23.9341577 L12.7022865,25.426967 L13.9836776,25.426967 L14.061184,22.5803986 L12.8268763,22.5803986 Z" id="Fill-14" fill="#FEFEFE"></path>
                        <path d="M26.6944391,17.5645736 L25.1399647,20.9500519 L23.2167917,17.5645736 L21.6782532,17.5645736 L24.4663109,22.1272964 C24.4453045,22.2274414 24.3120224,22.6381081 23.8774071,22.7051116 C23.6253301,22.7432964 23.140734,22.7224028 23.140734,22.7224028 L23.1305929,23.9068519 C23.1305929,23.9068519 23.4464135,23.9637689 23.9425994,23.9637689 C24.5945224,23.9637689 25.2116763,23.5848028 25.5926891,22.8254297 C26.0026763,22.0055373 28.1627147,17.5645736 28.1627147,17.5645736 L26.6944391,17.5645736 Z" id="Fill-16" fill="#FEFEFE"></path>
                    </g>
                </g>
            </g>
        </g>
    </g>
</svg>