<?xml version="1.0" encoding="UTF-8" standalone="no"?>
<svg width="24px" height="17px" viewBox="0 0 24 17" version="1.1" xmlns="http://www.w3.org/2000/svg" xmlns:xlink="http://www.w3.org/1999/xlink">
    <!-- Generator: Sketch 42 (36781) - http://www.bohemiancoding.com/sketch -->
    <title>Group 8</title>
    <desc>Created with Sketch.</desc>
    <defs></defs>
    <g id="Symbols" stroke="none" stroke-width="1" fill="none" fill-rule="evenodd">
        <g id="Question-approved" transform="translate(-554.000000, -170.000000)">
            <g id="Group-21">
                <g id="Group-8" transform="translate(550.000000, 163.000000)">
                    <rect id="Rectangle-38" x="0" y="0" width="32" height="32"></rect>
                    <g id="noun_102684_cc" transform="translate(4.000000, 7.000000)" fill="#BBBBBB">
                        <g id="Group">
                            <path d="M5,8.04499996 C5,7.45979998 5.9,7 7.04545455,7 L7.66455078,7 L21.2,7 C22.3454545,7 23.2454545,7.45979998 23.2454545,8.04499996 C23.2454545,8.63019993 22.3454545,9.08999991 21.2,9.08999991 L7.04545455,9.08999991 C5.9,9.08999991 5,8.63019993 5,8.04499996 Z" id="Shape"></path>
                            <path d="M5,1.04499996 C5,0.459799981 5.9,0 7.04545455,0 L7.66455078,0 L21.2,0 C22.3454545,0 23.2454545,0.459799981 23.2454545,1.04499996 C23.2454545,1.63019993 22.3454545,2.08999991 21.2,2.08999991 L7.04545455,2.08999991 C5.9,2.08999991 5,1.63019993 5,1.04499996 Z" id="Shape"></path>
                            <path d="M5,15.045 C5,14.4598 5.9,14 7.04545455,14 L7.66455078,14 L21.2,14 C22.3454545,14 23.2454545,14.4598 23.2454545,15.045 C23.2454545,15.6301999 22.3454545,16.0899999 21.2,16.0899999 L7.04545455,16.0899999 C5.9,16.0899999 5,15.6301999 5,15.045 Z" id="Shape"></path>
                            <circle id="Oval" cx="1.125" cy="8.125" r="1.125"></circle>
                            <circle id="Oval" cx="1.125" cy="1.125" r="1.125"></circle>
                            <circle id="Oval" cx="1.125" cy="15.125" r="1.125"></circle>
                        </g>
                    </g>
                </g>
            </g>
        </g>
    </g>
</svg>