<?xml version="1.0" encoding="UTF-8" standalone="no"?>
<svg width="10px" height="14px" viewBox="0 0 10 14" version="1.1" xmlns="http://www.w3.org/2000/svg" xmlns:xlink="http://www.w3.org/1999/xlink">
    <!-- Generator: Sketch 42 (36781) - http://www.bohemiancoding.com/sketch -->
    <title>Shape</title>
    <desc>Created with Sketch.</desc>
    <defs></defs>
    <g id="Page-1" stroke="none" stroke-width="1" fill="none" fill-rule="evenodd" opacity="0.799999952">
        <g id="login" transform="translate(-367.000000, -374.000000)" fill="#FFFFFF">
            <g id="pass-field" transform="translate(352.000000, 360.000000)">
                <g id="noun_17633_cc" transform="translate(15.000000, 14.000000)">
                    <path d="M9.1862963,6.32388889 L8.72925926,6.32388889 L8.72925926,4.03759259 L8.7237037,4.03759259 C8.725,3.99907407 8.72925926,3.96148148 8.72925926,3.92277778 C8.72925926,1.83962963 7.04018519,0.150555556 4.95611111,0.150555556 C2.87407407,0.150555556 1.185,1.83962963 1.185,3.92277778 C1.185,3.96148148 1.18833333,3.99907407 1.18944444,4.03759259 L1.185,4.03759259 L1.185,6.32388889 L0.726851852,6.32388889 C0.348333333,6.32388889 0.0412962963,6.63074074 0.0412962963,7.00944444 L0.0412962963,12.4972222 C0.0412962963,12.8759259 0.348148148,13.1827778 0.726851852,13.1827778 L9.1862963,13.1827778 C9.565,13.1827778 9.87185185,12.8759259 9.87185185,12.4972222 L9.87185185,7.00944444 C9.87203704,6.63074074 9.565,6.32388889 9.1862963,6.32388889 L9.1862963,6.32388889 Z M6.90018519,4.03759259 L6.90018519,6.32388889 L3.01314815,6.32388889 L3.01314815,4.03759259 L3.01981481,4.03759259 C3.01759259,3.99907407 3.01314815,3.96148148 3.01314815,3.92277778 C3.01314815,2.84981481 3.88314815,1.97981481 4.95611111,1.97981481 C6.02907407,1.97981481 6.90018519,2.84981481 6.90018519,3.92277778 C6.90018519,3.96148148 6.89685185,3.99907407 6.89481481,4.03759259 L6.90018519,4.03759259 L6.90018519,4.03759259 Z" id="Shape"></path>
                </g>
            </g>
        </g>
    </g>
</svg>