<?xml version="1.0" encoding="UTF-8" standalone="no"?>
<svg width="40px" height="39px" viewBox="0 0 40 39" version="1.1" xmlns="http://www.w3.org/2000/svg" xmlns:xlink="http://www.w3.org/1999/xlink">
    <!-- Generator: Sketch 42 (36781) - http://www.bohemiancoding.com/sketch -->
    <title>Fill 1</title>
    <desc>Created with Sketch.</desc>
    <defs></defs>
    <g id="Page-1" stroke="none" stroke-width="1" fill="none" fill-rule="evenodd">
        <g id="login" transform="translate(-417.000000, -141.000000)" fill="#FFFFFF">
            <g id="logo" transform="translate(417.000000, 140.000000)">
                <g transform="translate(0.000000, 1.000000)" id="Fill-1">
                    <path d="M12.1532292,11.4906498 L30.0940908,1.17088462 C29.3450524,0.731623616 28.5650773,0.339484831 27.7588777,0 L12.1532292,8.97473327 L5.20700482,4.97692548 C4.7118118,5.52231391 4.24530186,6.09536102 3.81382627,6.68992046 L12.1532292,11.4906498 Z M33.8685802,4.03058846 C33.3141771,3.49503424 32.7271982,2.99451436 32.1137899,2.52575075 L12.1532292,14.0065664 L2.62409277,8.52461367 C2.26719321,9.15441233 1.93856697,9.80818185 1.64948242,10.4775222 L12.1532292,16.5202293 L33.8685802,4.03058846 Z M12.1532292,19.0361458 L0.880570793,12.5519241 C0.659301259,13.2704354 0.477573411,14.0065664 0.339484831,14.7556047 L12.1532292,21.5530868 L36.6987815,7.43486122 C36.2955792,6.8224773 35.8598012,6.23324472 35.3930864,5.67023669 L12.1532292,19.0361458 Z M40,18.4391278 C40,29.4829361 31.0449351,38.4359522 19.9998976,38.4359522 C8.9528112,38.4359522 0,29.4829361 0,18.4391278 C0,17.9879838 0.0153659399,17.5444204 0.0458929404,17.1029057 L12.1532292,24.0679789 L37.8028755,9.31442298 C39.2048638,12.0526335 40,15.1532753 40,18.4391278 L40,18.4391278 Z"></path>
                </g>
            </g>
        </g>
    </g>
</svg>