<?xml version="1.0" encoding="UTF-8" standalone="no"?>
<svg width="12px" height="20px" viewBox="0 0 12 20" version="1.1" xmlns="http://www.w3.org/2000/svg" xmlns:xlink="http://www.w3.org/1999/xlink">
    <!-- Generator: Sketch 42 (36781) - http://www.bohemiancoding.com/sketch -->
    <title>Shape</title>
    <desc>Created with Sketch.</desc>
    <defs></defs>
    <g id="Page-1" stroke="none" stroke-width="1" fill="none" fill-rule="evenodd">
        <g id="Person" transform="translate(-112.000000, -390.000000)" fill="#474747">
            <g id="contact-bar" transform="translate(0.000000, 360.000000)">
                <g id="phone" transform="translate(112.000000, 30.000000)">
                    <path d="M10.0878273,0 L1.91244832,0 C0.856040423,0 -8.8817842e-16,0.675680085 -8.8817842e-16,1.50951195 L-8.8817842e-16,18.4904881 C-8.8817842e-16,19.3243199 0.856040423,20 1.91244832,20 L10.0878273,20 C11.1439596,20 12,19.3243199 12,18.4904881 L12,1.50951195 C12,0.675680085 11.1439596,0 10.0878273,0 L10.0878273,0 Z M10,16 L2,16 L2,2 L10,2 L10,16 L10,16 Z" id="Shape"></path>
                </g>
            </g>
        </g>
    </g>
</svg>