<?xml version="1.0" encoding="UTF-8" standalone="no"?>
<svg width="13px" height="18px" viewBox="0 0 13 18" version="1.1" xmlns="http://www.w3.org/2000/svg" xmlns:xlink="http://www.w3.org/1999/xlink">
    <!-- Generator: Sketch 42 (36781) - http://www.bohemiancoding.com/sketch -->
    <title>calendar</title>
    <desc>Created with Sketch.</desc>
    <defs></defs>
    <g id="Page-1" stroke="none" stroke-width="1" fill="none" fill-rule="evenodd" opacity="0.599999964">
        <g id="create-meeting" transform="translate(-164.000000, -402.000000)" fill="#474747">
            <g id="main-info-form" transform="translate(112.000000, 290.000000)">
                <g id="login-field" transform="translate(40.000000, 100.000000)">
                    <g id="calendar" transform="translate(12.000000, 12.000000)">
                        <path d="M6.5,17.875 C4.90911865,17.875 0,10.0898509 0,6.5 C0,2.91014913 2.91014913,0 6.5,0 C10.0898509,0 13,2.91014913 13,6.5 C13,10.0898509 8.09088135,17.875 6.5,17.875 Z M6.5,8.9375 C7.84619408,8.9375 8.9375,7.84619408 8.9375,6.5 C8.9375,5.15380592 7.84619408,4.0625 6.5,4.0625 C5.15380592,4.0625 4.0625,5.15380592 4.0625,6.5 C4.0625,7.84619408 5.15380592,8.9375 6.5,8.9375 Z" id="Combined-Shape"></path>
                    </g>
                </g>
            </g>
        </g>
    </g>
</svg>