<?xml version="1.0" encoding="UTF-8" standalone="no"?>
<svg width="22px" height="22px" viewBox="0 0 22 22" version="1.1" xmlns="http://www.w3.org/2000/svg" xmlns:xlink="http://www.w3.org/1999/xlink">
    <!-- Generator: Sketch 42 (36781) - http://www.bohemiancoding.com/sketch -->
    <title>search</title>
    <desc>Created with Sketch.</desc>
    <defs></defs>
    <g id="Page-2" stroke="none" stroke-width="1" fill="none" fill-rule="evenodd">
        <g id="header-look-3" transform="translate(-881.000000, -29.000000)">
            <g id="menu">
                <g id="search" transform="translate(872.000000, 20.000000)">
                    <g>
                        <rect id="Rectangle-57-Copy" x="5" y="5" width="30" height="30"></rect>
                        <path d="M25.6692944,22.7121876 L30.8210678,27.863961 L27.863961,30.8210678 L22.7121876,25.6692944 C21.3416091,26.5132047 19.7276531,27 18,27 C13.0294373,27 9,22.9705627 9,18 C9,13.0294373 13.0294373,9 18,9 C22.9705627,9 27,13.0294373 27,18 C27,19.7276531 26.5132047,21.3416091 25.6692944,22.7121876 Z M18,25 C21.8659932,25 25,21.8659932 25,18 C25,14.1340068 21.8659932,11 18,11 C14.1340068,11 11,14.1340068 11,18 C11,21.8659932 14.1340068,25 18,25 Z" id="Combined-Shape" fill="#474747"></path>
                    </g>
                </g>
            </g>
        </g>
    </g>
</svg>