<?xml version="1.0" encoding="UTF-8" standalone="no"?>
<svg width="13px" height="16px" viewBox="0 0 13 16" version="1.1" xmlns="http://www.w3.org/2000/svg" xmlns:xlink="http://www.w3.org/1999/xlink">
    <!-- Generator: Sketch 42 (36781) - http://www.bohemiancoding.com/sketch -->
    <title>calendar</title>
    <desc>Created with Sketch.</desc>
    <defs></defs>
    <g id="Page-1" stroke="none" stroke-width="1" fill="none" fill-rule="evenodd">
        <g id="create-meeting" transform="translate(-349.000000, -323.000000)" fill="#474747">
            <g id="main-info-form" transform="translate(112.000000, 290.000000)">
                <g id="login-field" transform="translate(225.000000, 20.000000)">
                    <g id="calendar" transform="translate(12.000000, 13.000000)">
                        <path d="M7,8.31801488 L8.08115919,7.02953953 L8.84720364,7.67232714 L7,9.87373871 L7,10 L6,10 L6,6 L7,6 L7,8.31801488 Z M0,9.5 C0,5.91014913 2.91745375,3 6.5,3 C10.0898509,3 13,5.91745375 13,9.5 C13,13.0898509 10.0825462,16 6.5,16 C2.91014913,16 0,13.0825462 0,9.5 Z M2,9.5 C2,11.9802243 4.01471863,14 6.5,14 C8.98022433,14 11,11.9852814 11,9.5 C11,7.01977567 8.98528137,5 6.5,5 C4.01977567,5 2,7.01471863 2,9.5 Z M4,0 L9,0 L9,2 L4,2 L4,0 Z" id="Combined-Shape"></path>
                    </g>
                </g>
            </g>
        </g>
    </g>
</svg>