<?xml version="1.0" encoding="UTF-8" standalone="no"?>
<svg width="12px" height="13px" viewBox="0 0 12 13" version="1.1" xmlns="http://www.w3.org/2000/svg" xmlns:xlink="http://www.w3.org/1999/xlink">
    <!-- Generator: Sketch 42 (36781) - http://www.bohemiancoding.com/sketch -->
    <title>noun_415727_cc</title>
    <desc>Created with Sketch.</desc>
    <defs></defs>
    <g id="Page-1" stroke="none" stroke-width="1" fill="none" fill-rule="evenodd" opacity="0.799999952">
        <g id="login" transform="translate(-367.000000, -314.000000)" fill="#FFFFFF">
            <g id="login-field" transform="translate(352.000000, 300.000000)">
                <g id="noun_415727_cc" transform="translate(15.000000, 14.000000)">
                    <path d="M11.1734177,10.7620253 C10.778481,8.62278481 8.91898734,7.05949367 6.74683544,7.05949367 L4.49240506,7.05949367 C2.27088608,7.05949367 0.394936709,8.6721519 0.0329113924,10.8607595 L0.0329113924,10.8607595 C-0.148101266,11.9632911 0.707594937,12.9506329 1.81012658,12.9506329 L9.41265823,12.9506329 C10.5316456,12.9506329 11.3873418,11.9303797 11.1898734,10.8278481 L11.1734177,10.7620253 L11.1734177,10.7620253 Z" id="Shape"></path>
                    <path d="M3.30759494,5.29873418 C4.59113924,6.58227848 6.66455696,6.61518987 7.98101266,5.36455696 L8.01392405,5.33164557 C9.14936709,4.24556962 9.26455696,2.48481013 8.26075949,1.26708861 L8.26075949,1.26708861 C6.89493671,-0.378481013 4.36075949,-0.34556962 3.0443038,1.33291139 L3.0443038,1.33291139 C2.12278481,2.51772152 2.22151899,4.21265823 3.29113924,5.28227848 L3.30759494,5.29873418 L3.30759494,5.29873418 Z" id="Shape"></path>
                </g>
            </g>
        </g>
    </g>
</svg>